<?xml version="1.0" standalone="no"?>
<!DOCTYPE svg PUBLIC "-//W3C//DTD SVG 20010904//EN"
 "http://www.w3.org/TR/2001/REC-SVG-20010904/DTD/svg10.dtd">
<svg version="1.0" xmlns="http://www.w3.org/2000/svg"
 width="400.000000pt" height="400.000000pt" viewBox="0 0 400.000000 400.000000"
 preserveAspectRatio="xMidYMid meet">
<metadata>
Created by potrace 1.11, written by Peter Selinger 2001-2013
</metadata>
<g transform="translate(0.000000,400.000000) scale(0.100000,-0.100000)"
fill="#000000" stroke="none">
<path d="M0 3475 c0 -402 3 -530 13 -546 10 -17 9 -23 0 -26 -18 -6 -16 -78 2
-97 19 -18 19 -21 -1 -40 -9 -10 -14 -29 -12 -50 l3 -34 80 76 c149 142 372
296 494 343 115 43 235 61 381 56 165 -5 236 -27 308 -92 26 -24 45 -45 42
-48 -3 -3 -45 -1 -95 5 -49 5 -129 7 -176 3 -147 -10 -456 -81 -437 -100 3 -3
31 3 64 14 124 39 294 65 429 65 164 1 221 -8 237 -37 16 -31 24 -212 9 -222
-7 -4 -62 -20 -123 -36 -166 -44 -448 -169 -448 -199 0 -19 27 -10 144 45 64
30 122 55 129 55 6 0 23 6 37 13 33 17 187 65 222 69 15 2 28 0 29 -5 3 -16
-25 -126 -32 -121 -4 2 -5 -4 -2 -14 2 -10 -9 -47 -25 -83 -16 -35 -32 -74
-36 -87 -4 -12 -12 -20 -17 -16 -5 3 -8 2 -7 -3 4 -13 -92 -203 -103 -203 -5
0 -9 -7 -9 -16 0 -8 -4 -12 -10 -9 -6 3 -7 -1 -4 -9 10 -26 -10 -18 -30 12
-10 16 -15 19 -10 7 4 -11 8 -31 9 -45 3 -25 2 -25 -66 -23 l-69 2 0 -40 c0
-32 -3 -39 -20 -39 -13 0 -20 -7 -20 -20 0 -17 -7 -20 -40 -20 -33 0 -40 3
-40 20 0 11 -4 20 -10 20 -5 0 -10 -18 -10 -40 l0 -40 65 0 c60 0 80 -9 55
-25 -5 -3 -10 -1 -10 4 0 7 -31 11 -82 11 -75 0 -87 -3 -128 -30 -29 -19 -59
-30 -85 -31 -23 -1 -30 -4 -17 -6 51 -10 7 -43 -57 -43 -34 0 -41 3 -41 20 0
11 -7 20 -15 20 -8 0 -15 -4 -15 -9 0 -5 7 -14 15 -21 8 -7 15 -21 15 -31 0
-14 9 -19 43 -22 28 -2 19 -4 -29 -5 -39 -1 -86 -5 -103 -8 -19 -4 -31 -2 -31
4 0 6 10 13 23 15 12 2 3 5 -20 6 -40 1 -43 -1 -43 -24 0 -22 -4 -25 -40 -25
-22 0 -40 5 -40 10 0 6 -18 10 -40 10 -33 0 -40 -3 -40 -20 0 -17 7 -20 39
-20 31 0 41 -4 46 -21 4 -11 4 -23 1 -26 -3 -4 -6 -2 -6 4 0 7 -44 11 -120 12
l-120 1 0 -700 c1 -385 5 -700 10 -700 11 0 60 59 60 72 0 26 11 -4 30 -81 11
-45 18 -87 14 -93 -4 -7 -3 -8 4 -4 6 4 22 -12 37 -39 15 -24 40 -56 57 -70
29 -25 30 -26 12 -40 -16 -12 201 -14 1586 -12 l1604 2 27 70 c34 88 137 316
151 332 6 7 17 13 25 13 8 0 26 10 38 22 13 12 37 27 54 33 17 5 50 25 74 43
105 82 192 142 204 142 11 0 13 180 13 1018 l0 1017 -48 31 c-76 50 -221 94
-312 94 -39 0 -51 3 -40 10 10 7 -11 10 -67 10 -61 0 -82 -3 -80 -12 1 -9 -12
-14 -38 -15 -22 -1 -34 0 -27 3 17 8 15 25 -3 18 -38 -15 6 60 48 79 130 62
323 30 560 -91 4 -2 7 3 7 12 0 8 -15 23 -32 32 -18 10 -27 19 -20 21 21 8 13
25 -8 18 -27 -9 -58 2 -70 26 -20 37 57 144 90 124 6 -4 18 -1 26 6 12 10 14
39 13 156 l-2 144 -21 -19 c-54 -50 -128 -58 -165 -18 -34 37 -40 106 -12 145
22 30 22 31 3 31 -11 0 -27 12 -37 26 -17 26 -16 60 1 129 3 14 -2 23 -18 30
-27 12 -43 53 -35 87 12 47 107 76 132 41 12 -15 18 -16 47 -5 19 6 46 12 61
12 28 0 32 6 19 27 -6 10 -20 10 -65 1 -54 -11 -58 -11 -82 12 -14 13 -25 33
-25 45 0 22 44 75 61 75 5 0 9 5 9 10 0 7 -22 10 -57 8 -52 -3 -58 -5 -61 -26
-4 -25 -36 -42 -80 -42 -15 0 -38 -7 -50 -16 -15 -10 -34 -13 -57 -10 -39 6
-45 -5 -20 -38 15 -20 15 -20 30 0 14 19 14 18 15 -3 0 -16 4 -21 15 -17 20 8
21 -43 1 -65 -29 -32 -23 -55 17 -75 l38 -18 -22 -24 c-12 -13 -26 -24 -31
-24 -4 0 -26 18 -48 40 l-40 40 -34 -16 c-42 -21 -38 -44 11 -68 24 -11 40
-29 51 -56 17 -39 17 -40 62 -35 57 7 72 -3 74 -51 1 -39 1 -39 -76 -76 -43
-21 -84 -35 -92 -32 -7 3 -18 19 -23 37 -10 36 -43 57 -90 57 -30 0 -32 -2
-28 -27 7 -38 -32 -65 -102 -71 -29 -2 -58 -11 -64 -18 -25 -30 -115 -4 -139
41 -7 13 -13 40 -14 59 -1 32 2 35 48 51 39 15 45 20 32 27 -13 7 -16 17 -11
38 3 16 3 45 -1 65 -9 52 -39 44 -73 -20 -14 -28 -30 -57 -36 -65 -5 -8 -9
-24 -10 -35 0 -16 -7 -20 -35 -21 -64 -1 -78 -4 -95 -20 -15 -15 -15 -18 0
-41 9 -14 15 -26 13 -28 -2 -1 -22 6 -45 16 -49 21 -55 42 -22 83 27 34 70 56
111 56 32 0 34 2 46 53 6 29 12 60 12 69 0 27 40 48 90 48 55 -1 79 -14 117
-61 26 -33 31 -35 48 -23 10 8 34 14 52 14 41 0 42 12 4 39 -31 22 -62 87 -63
133 -1 18 9 39 24 56 14 15 29 44 32 65 l7 37 -604 0 c-525 0 -606 -2 -617
-15 -16 -19 -51 -19 -76 0 -28 21 -896 22 -888 1 3 -8 -4 -16 -20 -20 -17 -4
-28 -16 -32 -32 -5 -19 -21 -33 -60 -51 -67 -30 -79 -50 -53 -82 14 -17 35
-27 71 -32 28 -5 53 -11 56 -14 3 -3 -13 -25 -37 -48 -23 -23 -41 -36 -39 -28
2 8 -6 17 -17 19 -11 2 -26 13 -33 23 -14 21 -63 49 -84 49 -7 0 -27 -14 -45
-30 -18 -17 -36 -30 -40 -30 -4 0 -18 16 -31 35 -27 42 -61 46 -96 13 -13 -13
-32 -28 -42 -34 -18 -11 -18 -13 4 -75 12 -35 22 -72 22 -81 0 -22 -74 -140
-83 -132 -8 8 -13 -7 -21 -57 -4 -20 -20 -51 -37 -70 -44 -50 -59 -35 -84 92
-12 57 -29 121 -38 143 -9 21 -17 46 -17 56 0 10 -19 57 -42 105 -37 78 -40
88 -25 102 21 21 74 10 109 -22 15 -14 33 -25 41 -25 7 0 18 -5 24 -11 7 -7
21 -4 47 10 24 14 36 17 36 8 0 -6 5 -4 11 6 5 9 7 22 3 28 -5 8 3 10 29 5 30
-6 38 -3 56 20 12 15 21 33 21 42 0 8 -28 41 -62 73 l-62 59 -273 0 -273 0 0
-525z m201 453 c51 -61 52 -72 19 -108 -34 -37 -50 -32 -74 22 -14 33 -15 47
-7 60 6 10 11 29 11 43 0 35 10 31 51 -17z m240 -10 c7 -13 15 -25 19 -28 11
-9 50 -77 50 -89 0 -47 -91 6 -110 64 -20 61 14 105 41 53z m1881 3 c33 -12
76 -81 89 -140 8 -41 7 -55 -6 -81 -13 -25 -21 -31 -38 -26 -12 3 -28 6 -34 6
-9 0 -13 16 -13 45 0 24 -5 56 -12 70 -13 28 -38 34 -38 9 0 -9 -11 -26 -23
-38 -14 -13 -27 -39 -30 -62 -14 -85 -67 -103 -67 -22 0 53 -14 78 -32 60 -18
-18 -46 -15 -50 6 -3 11 -9 1 -18 -26 -13 -42 -13 -43 20 -77 19 -19 31 -37
28 -40 -3 -3 -63 -4 -134 -3 l-129 3 43 20 c29 14 44 28 48 45 33 149 104 203
193 149 33 -20 35 -20 48 -3 7 10 13 26 13 35 0 10 12 31 26 48 27 33 68 40
116 22z m-2167 -142 c15 -28 15 -32 1 -48 -20 -22 -20 -40 -1 -47 17 -7 20
-40 5 -49 -5 -3 -10 1 -10 10 0 8 -6 18 -12 20 -15 6 -22 65 -8 65 6 0 10 7
10 15 0 8 -4 15 -10 15 -5 0 -10 11 -10 25 0 34 16 31 35 -6z m-51 -105 c19
-19 20 -26 4 -42 -15 -15 -58 -16 -58 -2 0 6 5 10 10 10 6 0 10 11 10 25 0 29
12 32 34 9z m1282 -50 c-3 -9 -6 -35 -6 -59 l0 -43 -51 -12 c-27 -7 -52 -10
-55 -8 -7 7 95 138 107 138 6 0 8 -7 5 -16z m-1234 -99 c18 -48 15 -75 -8 -75
-34 0 -58 82 -32 108 19 19 22 15 40 -33z m877 24 c18 -17 22 -28 17 -52 -8
-41 -16 -48 -59 -50 -19 -1 -33 -6 -30 -11 8 -12 -41 5 -49 18 -4 6 -8 13 -8
16 0 9 88 100 98 100 4 0 19 -10 31 -21z m1245 6 c151 -18 359 -66 459 -105
129 -50 387 -185 477 -250 114 -82 268 -209 274 -227 3 -8 -2 -16 -12 -19 -56
-19 -76 -31 -107 -67 -19 -22 -35 -48 -35 -58 0 -10 -3 -25 -6 -33 -6 -15 -8
-15 -19 1 -7 10 -11 22 -7 27 3 5 9 1 13 -10 7 -17 8 -17 8 4 1 12 -4 22 -9
22 -6 0 -10 6 -9 13 3 22 -1 37 -10 37 -4 0 -7 -12 -5 -27 2 -16 1 -22 -2 -15
-3 6 -14 12 -25 12 -10 0 -19 5 -19 10 0 6 5 10 10 10 6 0 10 7 10 15 0 8 -4
15 -10 15 -5 0 -10 -5 -10 -11 0 -7 -8 -18 -17 -25 -17 -13 -17 -13 0 -14 10
0 17 -8 17 -19 0 -12 8 -21 23 -24 21 -3 21 -4 3 -12 -13 -6 -21 -5 -24 3 -5
17 -42 15 -42 -3 0 -9 10 -16 28 -16 20 -2 18 -3 -13 -9 -22 -3 -57 -5 -77 -5
-21 1 -35 -2 -32 -6 3 -5 -2 -9 -11 -9 -10 0 -13 5 -9 12 5 8 -3 9 -29 5 -28
-4 -37 -2 -37 9 0 16 -36 19 -45 4 -5 -9 1 -12 21 -9 4 0 10 -3 13 -8 3 -5 17
-14 31 -20 24 -11 22 -12 -18 -12 -26 -1 -41 3 -37 9 8 13 -6 13 -39 0 -14 -5
-26 -15 -26 -22 0 -8 -16 -14 -42 -16 -47 -3 -95 -23 -90 -37 4 -10 -32 -26
-51 -21 -6 1 -9 1 -5 -1 9 -5 -69 -73 -82 -73 -11 0 34 46 52 53 9 4 9 6 -2 6
-9 1 -26 -7 -39 -16 -18 -12 -22 -13 -17 -2 4 8 0 5 -8 -5 -16 -19 -16 -19
-16 3 0 13 -4 20 -11 16 -6 -4 -17 2 -25 14 -9 12 -29 28 -46 37 -16 8 -28 18
-25 21 9 8 -25 42 -38 37 -15 -6 -117 44 -128 63 -4 7 -17 13 -28 13 -11 0
-29 5 -40 11 -11 6 -28 12 -37 14 -9 2 -48 11 -87 21 -98 25 -297 22 -429 -5
-126 -27 -250 -66 -301 -96 l-40 -23 -2 95 c-1 80 -6 104 -28 148 -28 58 -83
113 -143 144 -87 44 -319 66 -431 40 -53 -12 -59 -8 -29 21 71 66 299 193 439
243 168 61 415 118 559 130 125 10 416 6 524 -8z m754 -167 c16 -16 15 -48 0
-47 -19 1 -71 33 -76 47 -5 16 60 16 76 0z m-2798 -147 c22 -54 7 -65 -22 -16
-25 41 -26 45 -9 45 11 0 23 -12 31 -29z m3210 -21 c0 -5 -7 -10 -15 -10 -8 0
-15 5 -15 10 0 6 7 10 15 10 8 0 15 -4 15 -10z m368 -236 c20 -14 31 -54 15
-54 -21 1 -88 29 -91 39 -2 6 7 15 20 20 31 13 31 13 56 -5z m-1665 -150 c161
-37 314 -120 426 -231 40 -40 75 -73 77 -73 3 0 26 17 53 38 145 115 445 174
588 117 36 -14 43 -23 58 -67 39 -121 153 -315 288 -491 31 -42 60 -90 63
-106 15 -75 -56 -407 -102 -478 -8 -13 -12 -23 -9 -23 13 0 -107 -212 -124
-218 -6 -2 -11 -10 -11 -19 0 -10 -6 -12 -20 -8 -15 5 -18 3 -14 -10 7 -17
-23 -58 -37 -49 -5 2 -11 -7 -15 -21 -3 -13 -10 -22 -16 -19 -11 7 -58 -34
-58 -50 1 -6 10 0 21 13 11 13 22 21 25 18 4 -3 -6 -18 -20 -32 -14 -14 -26
-22 -26 -18 0 5 -12 10 -27 11 l-28 2 23 -16 c22 -15 22 -17 5 -29 -22 -15
-63 -26 -63 -17 1 19 18 32 36 26 18 -6 18 -6 2 11 -17 19 -38 13 -38 -11 0
-10 -12 -14 -39 -14 -22 0 -46 -7 -55 -15 -8 -8 -26 -15 -41 -15 -25 0 -26 -3
-25 -42 3 -71 3 -71 -30 -65 -16 4 -30 3 -30 -2 0 -12 -196 -11 -260 1 -30 5
-61 15 -69 22 -8 6 -17 10 -20 9 -31 -13 -270 115 -256 137 2 4 27 5 54 2 61
-5 110 10 175 57 64 45 136 113 136 127 0 6 6 17 14 23 32 26 125 253 152 368
41 175 36 413 -11 537 -28 75 -51 112 -99 164 -49 53 -95 72 -176 72 -94 0
-153 -30 -245 -125 -78 -80 -133 -167 -188 -295 -59 -140 -77 -229 -77 -382 0
-166 19 -269 67 -367 40 -79 80 -123 145 -157 l41 -21 -59 -27 c-257 -119
-631 -135 -863 -39 -101 43 -188 87 -244 125 -167 113 -293 309 -327 508 l-12
70 39 47 c21 27 40 50 43 53 14 13 135 188 171 248 108 176 213 404 234 502
20 99 25 109 68 135 76 44 250 97 387 118 73 12 276 6 343 -9z m1110 -71 c-7
-2 -21 -2 -30 0 -10 3 -4 5 12 5 17 0 24 -2 18 -5z m57 -13 c-8 -5 -17 -7 -19
-4 -3 3 1 9 9 14 8 5 17 7 19 4 3 -3 -1 -9 -9 -14z m187 14 c-3 -3 -12 -4 -19
-1 -8 3 -5 6 6 6 11 1 17 -2 13 -5z m76 -1 c-7 -2 -19 -2 -25 0 -7 3 -2 5 12
5 14 0 19 -2 13 -5z m-166 -19 c-3 -3 -12 -4 -19 -1 -8 3 -5 6 6 6 11 1 17 -2
13 -5z m-571 -59 c-11 -8 -25 -15 -30 -15 -6 1 0 7 14 15 32 19 40 18 16 0z
m584 -5 c0 -5 -2 -10 -4 -10 -3 0 -8 5 -11 10 -3 6 -1 10 4 10 6 0 11 -4 11
-10z m10 -84 c0 -6 -7 -1 -15 10 -8 10 -15 23 -15 28 0 6 7 1 15 -10 8 -10 15
-23 15 -28z m-724 -187 c84 -40 157 -153 184 -284 7 -33 13 -118 13 -190 1
-132 -6 -170 -55 -340 -24 -80 -103 -244 -121 -250 -7 -2 -28 -1 -47 3 -39 9
-38 0 -16 131 13 82 12 111 -4 111 -4 0 -18 -51 -31 -113 -22 -112 -23 -114
-48 -110 -76 13 -262 2 -377 -22 -19 -4 -24 3 -38 55 -24 84 -34 233 -25 344
10 114 41 213 114 361 124 250 307 374 451 304z m-1661 -349 c3 -5 0 -10 -7
-10 -8 0 -19 -12 -26 -27 l-12 -28 4 28 c2 15 -1 27 -5 27 -5 0 -9 5 -9 10 0
6 11 10 24 10 14 0 28 -4 31 -10z m-55 -19 c0 -5 -7 -14 -15 -21 -13 -10 -15
-9 -15 9 0 12 6 21 15 21 8 0 15 -4 15 -9z m5 -51 c3 -6 -1 -7 -9 -4 -18 7
-21 14 -7 14 6 0 13 -4 16 -10z m-15 -45 c0 -5 -5 -3 -10 5 -5 8 -10 20 -10
25 0 6 5 3 10 -5 5 -8 10 -19 10 -25z m-150 -129 c0 -3 -4 -8 -10 -11 -5 -3
-10 -1 -10 4 0 6 5 11 10 11 6 0 10 -2 10 -4z m-503 -128 c-3 -8 -6 -5 -6 6
-1 11 2 17 5 13 3 -3 4 -12 1 -19z m-123 -57 c3 -4 3 -11 0 -14 -8 -7 -44 4
-44 14 0 12 37 12 44 0z m2960 -606 c-22 -17 -34 -19 -34 -6 0 5 8 12 18 14
32 9 36 7 16 -8z m-29 -35 c3 -5 1 -10 -4 -10 -6 0 -11 5 -11 10 0 6 2 10 4
10 3 0 8 -4 11 -10z m-2368 -792 c-3 -8 -6 -5 -6 6 -1 11 2 17 5 13 3 -3 4
-12 1 -19z m-19 -36 c-15 -6 -15 -10 2 -44 12 -25 14 -38 7 -38 -13 0 -39 69
-31 82 3 5 13 8 22 7 16 0 16 -1 0 -7z m39 -29 c7 -10 18 -27 24 -38 10 -17 8
-17 -10 3 -12 12 -26 22 -31 22 -6 0 -10 7 -10 15 0 20 10 19 27 -2z m-100
-27 c-13 -14 -28 -26 -33 -26 -4 0 5 13 21 30 16 16 30 28 32 26 2 -2 -7 -16
-20 -30z m-73 -61 c-6 -16 -24 -21 -24 -7 0 11 11 22 21 22 5 0 6 -7 3 -15z"/>
<path d="M3085 2980 c3 -5 8 -10 11 -10 2 0 4 5 4 10 0 6 -5 10 -11 10 -5 0
-7 -4 -4 -10z"/>
<path d="M2930 2810 c0 -5 7 -10 15 -10 8 0 15 5 15 10 0 6 -7 10 -15 10 -8 0
-15 -4 -15 -10z"/>
<path d="M2460 2760 c-9 -6 -10 -10 -3 -10 6 0 15 5 18 10 8 12 4 12 -15 0z"/>
<path d="M2540 2716 c0 -2 7 -9 15 -16 13 -11 14 -10 9 4 -5 14 -24 23 -24 12z"/>
<path d="M2773 2713 c9 -2 23 -2 30 0 6 3 -1 5 -18 5 -16 0 -22 -2 -12 -5z"/>
<path d="M2632 2662 c2 -9 11 -17 21 -17 24 0 23 18 -3 27 -17 6 -21 4 -18
-10z"/>
<path d="M1670 2081 c-110 -34 -170 -99 -215 -236 -30 -90 -1 -229 59 -278 55
-46 152 -66 221 -47 114 32 228 233 212 372 -17 141 -145 229 -277 189z m84
-227 c23 -22 20 -54 -9 -97 -45 -66 -115 -55 -115 18 0 67 84 120 124 79z"/>
<path d="M3205 2011 c-77 -19 -131 -69 -185 -173 -28 -53 -33 -76 -37 -148 -4
-75 -1 -90 19 -125 59 -101 220 -116 303 -28 88 94 140 277 104 370 -29 76
-122 123 -204 104z m35 -216 c16 -19 7 -81 -16 -106 -19 -22 -54 -25 -72 -7
-34 34 10 127 59 128 9 0 22 -7 29 -15z"/>
<path d="M3390 1245 c0 -8 2 -15 4 -15 2 0 6 7 10 15 3 8 1 15 -4 15 -6 0 -10
-7 -10 -15z"/>
<path d="M1014 3989 c26 -6 43 -6 50 1 7 7 -6 10 -39 9 l-50 -1 39 -9z"/>
<path d="M2008 3993 c7 -3 16 -2 19 1 4 3 -2 6 -13 5 -11 0 -14 -3 -6 -6z"/>
<path d="M795 3859 c-4 -5 -4 -22 0 -36 6 -24 9 -25 47 -19 68 11 74 22 29 49
-33 19 -67 22 -76 6z"/>
<path d="M3251 3584 c0 -11 3 -14 6 -6 3 7 2 16 -1 19 -3 4 -6 -2 -5 -13z"/>
<path d="M3185 3550 c-3 -5 -2 -10 4 -10 5 0 13 5 16 10 3 6 2 10 -4 10 -5 0
-13 -4 -16 -10z"/>
<path d="M520 3520 c0 -5 5 -10 10 -10 6 0 10 5 10 10 0 6 -4 10 -10 10 -5 0
-10 -4 -10 -10z"/>
<path d="M3420 2829 c0 -5 5 -7 10 -4 6 3 10 8 10 11 0 2 -4 4 -10 4 -5 0 -10
-5 -10 -11z"/>
<path d="M1157 2293 c-4 -3 -7 -11 -7 -17 0 -6 5 -5 12 2 6 6 9 14 7 17 -3 3
-9 2 -12 -2z"/>
<path d="M1026 2123 c-9 -10 -7 -25 3 -19 5 4 12 0 14 -6 4 -8 6 -7 6 4 1 19
-13 31 -23 21z"/>
<path d="M16 1715 c-9 -13 -16 -27 -16 -30 0 -3 37 -4 83 -3 46 1 63 3 39 5
-31 3 -46 10 -58 29 -20 30 -28 30 -48 -1z"/>
<path d="M3925 349 c-10 -16 22 -93 50 -119 24 -22 25 -23 25 -4 0 19 -56 134
-65 134 -2 0 -7 -5 -10 -11z"/>
<path d="M3826 308 c23 -75 84 -148 125 -148 28 0 23 23 -10 48 -16 11 -44 44
-62 72 -34 52 -66 69 -53 28z"/>
<path d="M75 251 c-3 -5 -1 -12 5 -16 5 -3 10 1 10 9 0 18 -6 21 -15 7z"/>
<path d="M3755 221 c-5 -9 67 -61 85 -61 18 0 11 16 -17 36 -36 26 -61 35 -68
25z"/>
<path d="M86 95 c-3 -8 -1 -15 4 -15 6 0 10 7 10 15 0 8 -2 15 -4 15 -2 0 -6
-7 -10 -15z"/>
<path d="M120 86 c0 -2 11 -6 25 -8 13 -3 22 -1 19 3 -5 9 -44 13 -44 5z"/>
<path d="M172 58 c-7 -7 -12 -19 -12 -27 0 -11 5 -8 16 7 18 25 15 39 -4 20z"/>
<path d="M113 28 c2 -7 10 -13 17 -13 7 0 15 6 18 13 2 7 -5 12 -18 12 -13 0
-20 -5 -17 -12z"/>
<path d="M186 24 c-4 -9 -4 -19 -1 -22 6 -6 35 18 35 29 0 16 -28 10 -34 -7z"/>
</g>
</svg>
